HIERARCHY
ROOT Hips
{
	OFFSET 0.0000 0.0000 0.0000
	CHANNELS 6 Xposition Yposition Zposition Zrotation Xrotation Yrotation
	JOINT Ab
	{
		OFFSET -0.0000 8.0846 -0.0000
		CHANNELS 3 Zrotation Xrotation Yrotation
		JOINT Chest
		{
			OFFSET -0.0000 25.0068 -0.0000
			CHANNELS 3 Zrotation Xrotation Yrotation
			JOINT Neck
			{
				OFFSET -0.0000 25.0068 0.0000
				CHANNELS 3 Zrotation Xrotation Yrotation
				JOINT Head
				{
					OFFSET -0.0000 10.7556 0.0000
					CHANNELS 3 Zrotation Xrotation Yrotation
					End Site
					{
						OFFSET -0.0000 16.6222 0.0000
					}
				}
			}
			JOINT LeftCollar
			{
				OFFSET -0.0000 25.0068 0.0000
				CHANNELS 3 Zrotation Xrotation Yrotation
				JOINT LeftShoulder
				{
					OFFSET 19.5556 -0.0000 0.0000
					CHANNELS 3 Zrotation Xrotation Yrotation
					JOINT LeftElbow
					{
						OFFSET 27.1828 0.0000 0.0000
						CHANNELS 3 Zrotation Xrotation Yrotation
						JOINT LeftWrist
						{
							OFFSET 23.3157 0.0000 0.0000
							CHANNELS 3 Zrotation Xrotation Yrotation
							End Site
							{
								OFFSET 0.0000 -14.6667 0.0000
							}
						}
					}
				}
			}
			JOINT RightCollar
			{
				OFFSET -0.0000 25.0068 0.0000
				CHANNELS 3 Zrotation Xrotation Yrotation
				JOINT RightShoulder
				{
					OFFSET -19.5556 0.0000 0.0000
					CHANNELS 3 Zrotation Xrotation Yrotation
					JOINT RightElbow
					{
						OFFSET -27.1828 0.0000 0.0000
						CHANNELS 3 Zrotation Xrotation Yrotation
						JOINT RightWrist
						{
							OFFSET -23.3157 0.0000 0.0000
							CHANNELS 3 Zrotation Xrotation Yrotation
							End Site
							{
								OFFSET -0.0000 -14.6667 0.0000
							}
						}
					}
				}
			}
		}
	}
	JOINT LeftHip
	{
		OFFSET 11.7333 0.0000 0.0000
		CHANNELS 3 Zrotation Xrotation Yrotation
		JOINT LeftKnee
		{
			OFFSET -0.0000 -40.8688 0.0000
			CHANNELS 3 Zrotation Xrotation Yrotation
			JOINT LeftAnkle
			{
				OFFSET -0.0000 -44.4337 0.0000
				CHANNELS 3 Zrotation Xrotation Yrotation
				End Site
				{
					OFFSET -0.0000 -4.8889 16.6222
				}
			}
		}
	}
	JOINT RightHip
	{
		OFFSET -11.7333 0.0000 0.0000
		CHANNELS 3 Zrotation Xrotation Yrotation
		JOINT RightKnee
		{
			OFFSET -0.0000 -40.8688 0.0000
			CHANNELS 3 Zrotation Xrotation Yrotation
			JOINT RightAnkle
			{
				OFFSET -0.0000 -44.4337 0.0000
				CHANNELS 3 Zrotation Xrotation Yrotation
				End Site
				{
					OFFSET -0.0000 -4.8889 16.6222
				}
			}
		}
	}
}
MOTION
Frames: 12
Frame Time: 0.010000
1.9660 81.9986 90.9057 0.3410 356.4606 167.3675 0.3951 4.3316 5.4603 352.6132 9.9821 6.1211 4.7629 333.4773 1.5574 359.8453 1.1377 0.4167 340.6571 358.6355 7.5582 295.7226 358.2235 12.5694 9.3678 357.2542 324.2891 85.3085 2.5153 329.7627 20.4629 359.5324 357.3291 20.8494 42.8482 48.7489 326.8253 348.2478 38.4678 273.4879 350.5889 8.7926 6.9749 324.1428 359.8220 352.1057 26.7853 4.9432 356.2264 353.5238 28.9125 357.9635 5.4963 0.3771 355.9002 37.3355 16.4309 5.8476 340.0462 345.4174 
1.8115 82.0839 89.3519 0.1187 356.5950 167.4074 0.1265 4.3641 5.4223 352.3642 9.8867 6.0884 4.7617 333.4886 1.4482 0.2170 1.0850 0.3084 340.6396 358.7137 7.1125 295.9576 357.2959 12.7348 8.8081 357.3701 324.2524 85.6394 2.7380 329.0183 20.5572 359.4959 357.2214 21.5905 43.0768 48.0489 327.1177 348.3343 38.5485 273.1273 350.7319 8.7747 6.6838 324.3389 359.6356 351.3066 28.2337 5.0797 356.0761 353.8395 28.8688 357.6555 4.7814 1.0042 355.9532 39.9928 13.9715 5.7181 343.7888 346.7595 
1.6549 82.1998 87.7926 359.9299 356.7362 167.4956 359.9628 4.3838 5.3426 352.0775 9.7710 6.0194 4.6183 333.6103 1.2421 0.6250 1.0182 0.1354 340.6486 358.8021 6.5625 296.2678 356.1990 12.9101 8.1366 357.5804 324.2025 85.7905 2.9916 328.0608 20.5938 359.4923 357.2745 22.8548 43.4007 46.8792 327.4163 348.4323 38.5490 272.7514 350.6909 8.7316 6.3587 324.7209 359.8458 350.7539 29.4818 4.8548 356.2257 354.2586 28.9503 357.3630 3.8451 1.6205 356.5126 42.8726 10.3202 5.3731 346.9672 347.7736 
1.4795 82.3401 86.2608 359.7647 356.8299 167.6491 359.9251 4.3633 5.1895 351.7485 9.7019 5.8883 4.6132 333.6160 1.1792 0.7895 1.2244 0.0811 340.6882 358.8802 6.1930 296.4018 356.1118 12.7354 7.9146 357.5756 324.3885 85.8103 3.1902 327.5409 20.5430 359.5122 357.3254 24.4816 43.7223 45.4049 327.7018 348.4905 38.7640 272.4553 350.6634 9.0279 5.9323 325.1545 0.3707 350.5895 30.5666 4.5509 356.9290 354.6272 28.2157 357.0905 2.6290 1.9078 356.9489 45.9902 7.6840 2.9622 351.1124 347.3839 
1.3123 82.4998 84.7514 359.6516 356.9837 167.8318 359.9442 4.4639 4.9722 351.4513 9.5037 5.6824 4.6814 333.7728 1.2164 0.7946 1.4162 0.1140 340.7850 358.9665 5.7249 296.6090 355.4680 12.6906 7.4221 357.7477 324.3905 85.5451 3.4778 326.5142 20.4780 359.5472 357.5639 26.2948 43.9536 43.8077 328.3244 348.7820 38.6468 271.8235 350.6923 9.0157 5.5375 325.7993 0.7969 350.3943 31.4095 4.3708 2.0790 356.3379 23.8988 356.9058 1.3350 1.9909 357.1255 49.3700 5.7296 5.5100 353.6968 349.6851 
1.1466 82.6675 83.2629 359.5804 357.1568 167.9778 0.1788 4.5691 4.6331 350.9475 9.3692 5.3844 4.7368 333.9191 1.3511 0.9305 1.6829 0.2506 340.9983 359.0476 5.4879 296.6511 355.2733 12.3504 7.0930 357.8186 324.4482 85.5187 3.6987 325.8705 20.4005 359.6079 358.0950 28.7819 44.0533 41.4940 328.8840 348.9536 38.9630 271.8380 351.0882 9.4482 5.2227 326.6049 1.1195 350.1328 32.0032 4.5419 358.8264 355.1956 23.1179 356.8034 359.9085 1.8986 356.9796 52.7857 3.9880 5.9739 356.7059 350.7408 
0.9939 82.8516 81.7847 359.5117 357.3938 168.0460 0.2587 4.6652 4.3469 350.6890 9.2791 5.1152 4.8922 334.0615 1.5946 0.7875 2.0269 0.4703 341.1486 359.1043 5.2602 296.6992 354.5190 12.0871 6.6785 357.9668 324.2096 85.1345 4.2188 324.7793 20.4795 359.6582 358.3162 29.8196 44.1376 40.6492 329.8976 349.4567 38.6216 271.7677 351.3087 9.5268 5.0353 327.5854 1.2891 349.5824 32.4052 4.5020 359.0591 354.4363 23.1667 356.7249 358.4201 1.9680 356.9415 56.2693 2.7616 5.6100 359.5596 350.7922 
0.8843 83.0384 80.2454 359.4714 357.9706 168.3724 0.0779 5.0357 3.9927 350.8432 9.1872 4.7340 4.9046 334.4001 1.7183 0.6553 2.2089 0.6045 341.1381 359.1456 4.9647 296.7078 354.6641 11.7096 6.4973 357.9728 324.0726 85.3986 4.3783 324.2101 20.4264 359.6895 358.4761 31.4487 44.2512 39.1151 330.6367 349.7552 38.4906 272.1194 351.6592 10.1219 4.5615 329.0202 1.3599 349.3889 32.6161 4.1906 359.6947 353.9423 23.0786 356.6455 357.4209 2.0844 357.5811 59.4864 1.4369 3.3780 1.1216 350.3999 
0.7383 83.2631 78.7586 359.3203 358.2247 168.5420 359.9271 5.0031 3.6936 350.8941 9.2018 4.4252 4.9830 334.6507 1.9497 0.6181 2.4213 0.8072 341.1101 359.1538 4.9462 296.6394 355.6851 10.9621 6.8327 357.7582 324.1287 85.1103 4.5079 324.4338 20.3897 359.7318 358.7110 33.1653 44.2621 37.5678 331.4405 350.0936 38.3968 272.8452 351.8382 10.9266 3.9619 330.1847 1.6901 349.6113 32.7341 3.8215 0.0355 353.2786 22.7664 356.4835 356.0311 2.1655 358.2120 62.3676 0.2904 3.2200 1.4839 349.4399 
0.5514 83.5167 77.3879 359.1690 358.2477 168.8225 359.7995 4.9618 3.4029 351.0407 8.9982 4.1015 5.1610 334.8807 2.0899 0.2943 2.6703 0.9399 340.9846 359.1849 4.7352 296.6802 356.8085 10.3262 7.2098 357.5848 324.0780 85.1029 4.5352 325.0070 20.3856 359.7570 358.6646 34.6283 44.3391 36.2141 332.1604 350.4015 38.1419 273.4783 351.8566 11.5083 3.3124 331.0432 1.8844 349.9209 32.8104 3.4438 0.2613 352.6224 22.4943 356.4102 354.2843 1.8906 358.5267 64.9285 359.6554 2.3363 1.1127 348.1272 
0.4098 83.7853 75.9886 359.0804 358.5624 169.2765 359.6699 5.0894 3.0213 351.2124 9.0151 3.7019 5.4188 335.0528 2.2134 359.9343 2.9209 1.0076 340.9677 359.2173 4.4600 296.6876 357.8914 9.5265 7.5187 357.4763 323.9669 85.3113 4.2396 325.7908 20.4073 359.7521 358.6379 36.3873 44.1849 34.5315 332.8469 350.6754 38.0670 274.5719 351.8066 12.3710 2.5820 332.3199 1.8579 350.2756 32.6505 3.0610 0.4528 352.0054 22.2833 356.3721 352.9325 1.5631 358.8516 67.2578 359.1113 1.2216 359.8319 347.2931 
0.2774 84.0845 74.6003 359.0809 358.7828 169.6284 359.5749 5.1717 2.7324 351.4949 8.9554 3.3810 5.6255 335.2171 2.3603 359.7421 3.1484 1.1451 340.8223 359.2139 4.5795 296.7305 0.4453 8.4401 8.4913 357.0396 324.2138 85.2274 3.9545 327.8743 20.4014 359.7508 358.6135 38.2922 43.8952 32.6986 333.7100 351.0170 38.1742 275.4416 352.2916 13.7700 2.0935 333.6937 1.6575 350.4348 32.2250 2.6757 0.4323 351.5880 22.1624 356.4402 351.4761 1.4902 359.8981 69.1042 357.7673 359.0093 359.2710 346.5724 
